<?xml version="1.0" encoding="utf-8" ?><svg xmlns="http://www.w3.org/2000/svg" xmlns:xlink="http://www.w3.org/1999/xlink" width="1920" height="1080" viewBox="0 0 1920 1080"><path fill="#F6F1EB" transform="scale(1.42857 1.40625)" d="M0 0L1344 0L1344 423.945L1344 425.534L1344 440.591L1344 469.793L1344 491.678L1344 520.845L1344 543.799L1344 573.629L1344 594.791L1344 623.333L1344 647.428L1344 675.572L1344 698.726L1344 718.179L1344 719.427L1344 768L0 768L0 719.616L0 718.101L0 425.234L0 424.049L0 289.94L0 288.308L0 0Z"/><path fill="#FEC84C" transform="scale(1.42857 1.40625)" d="M0 424.049C35.7634 423.115 65.0658 419.841 65.1052 467.508C65.1172 481.938 64.9568 497.111 64.9475 511.568L64.9312 611.124L64.9339 660.624C64.9268 672.28 66.0497 687.493 62.1099 698.262C52.2301 725.267 21.8414 719.11 0 719.616L0 718.101L0 425.234L0 424.049Z"/><path fill="#181716" transform="scale(1.42857 1.40625)" d="M0 424.049C35.7634 423.115 65.0658 419.841 65.1052 467.508C65.1172 481.938 64.9568 497.111 64.9475 511.568L64.9312 611.124L64.9339 660.624C64.9268 672.28 66.0497 687.493 62.1099 698.262C52.2301 725.267 21.8414 719.11 0 719.616L0 718.101C27.9329 717.875 54.0392 724.173 63.1333 689.572C53.6098 682.841 53.1039 677.402 63.1059 671.015C63.4791 659.729 63.8776 651.395 62.5944 640.101C54.0088 631.053 51.7835 629.168 63.5611 621.457C63.684 612.601 64.1726 599.411 62.9157 591.068C53.9557 583.285 51.5312 578.816 63.6092 572.414C63.6944 563.962 63.951 553.921 63.5558 545.454C63.4996 544.25 61.7376 541.083 61.2817 538.988L63.4086 538.26C64.1317 535.808 64.3892 527.42 62.2331 525.723C57.1879 527.249 56.869 532.221 59.0274 536.452L59.3757 537.128L58.8706 537.439C56.6989 535.438 55.0269 533.883 55.1375 530.701C56.5618 526.597 59.9553 525.18 63.6258 523.049L63.618 491.759C51.7807 486.853 54.6115 479.6 63.3323 473.379C63.6177 459.009 64.296 444.366 52.3236 433.766C41.0468 423.781 28.5309 424.965 14.6125 425.768C17.4255 428.037 21.528 432.328 20.1789 436.172C14.5167 452.308 -9.05073 436.508 10.2535 425.38L0 425.234L0 424.049Z"/><path fill="#FEC84C" transform="scale(1.42857 1.40625)" d="M10.1596 427.694C13.9249 426.875 17.6441 429.254 18.4783 433.018C19.3125 436.781 16.9476 440.51 13.1888 441.359C9.40917 442.213 5.65557 439.831 4.81676 436.047C3.97795 432.264 6.3734 428.518 10.1596 427.694Z"/><path fill="#FEC84C" transform="scale(1.42857 1.40625)" d="M61.3613 673.15C64.5479 675.203 64.5841 684.838 62.6312 687.225L61.3528 686.908C55.9125 681.08 55.7976 678.899 61.3613 673.15Z"/><path fill="#FEC84C" transform="scale(1.42857 1.40625)" d="M61.8832 574.713C63.0943 575.066 62.533 574.749 63.4173 575.974C63.889 579.908 65.0898 586.879 61.4271 589.163C55.8599 583.398 56.4619 579.884 61.8832 574.713Z"/><path fill="#FEC84C" transform="scale(1.42857 1.40625)" d="M62.0861 475.598C64.6013 477.516 64.2917 486.003 63.0454 488.668C62.6917 489.424 61.6809 489.268 60.8657 489.353C55.7626 483.008 56.1232 481.143 62.0861 475.598Z"/><path fill="#FEC84C" transform="scale(1.42857 1.40625)" d="M62.4564 623.371C64.0202 626.108 64.1493 634.973 62.3829 637.525L60.9666 637.632C56.0505 630.846 56.3606 628.907 62.4564 623.371Z"/><path fill="#181716" transform="scale(1.42857 1.40625)" d="M36.7115 647.598C41.5689 646.925 46.0471 650.332 46.6961 655.193C47.345 660.055 43.9171 664.518 39.0533 665.143C34.2233 665.764 29.7997 662.364 29.1553 657.536C28.5108 652.708 31.8879 648.266 36.7115 647.598Z"/><path fill="#FEC84C" transform="scale(1.42857 1.40625)" d="M35.4253 649.509C39.1549 648.147 43.2818 650.065 44.6473 653.794C46.0128 657.523 44.1007 661.653 40.3745 663.024C36.6418 664.396 32.5035 662.48 31.1356 658.744C29.7677 655.009 31.6892 650.872 35.4253 649.509Z"/><path fill="#181716" transform="scale(1.42857 1.40625)" d="M34.7382 549.142C37.7725 547.957 41.2123 548.539 43.6879 550.657C46.1635 552.774 47.2727 556.083 46.5739 559.265C45.8751 562.447 43.4816 564.986 40.3468 565.87C35.8136 567.15 31.0746 564.645 29.577 560.178C28.0794 555.711 30.3505 550.855 34.7382 549.142Z"/><path fill="#FEC84C" transform="scale(1.42857 1.40625)" d="M36.1085 550.408C39.8134 549.475 43.6004 551.607 44.7253 555.259C45.8501 558.911 43.919 562.805 40.3311 564.119C37.8381 565.032 35.0449 564.494 33.0683 562.721C31.0917 560.949 30.2543 558.23 30.8908 555.652C31.5274 553.073 33.534 551.057 36.1085 550.408Z"/><path fill="#181716" transform="scale(1.42857 1.40625)" d="M35.7495 499.86C38.812 499.108 42.0421 500.061 44.2064 502.355C46.3707 504.649 47.135 507.929 46.2073 510.944C45.2796 513.958 42.8033 516.241 39.724 516.921C35.0404 517.954 30.3971 515.027 29.3086 510.355C28.2202 505.683 31.0916 501.004 35.7495 499.86Z"/><path fill="#FEC84C" transform="scale(1.42857 1.40625)" d="M34.8923 501.837C37.2399 500.785 39.9728 501.086 42.0353 502.624C44.0978 504.162 45.1671 506.695 44.83 509.246C44.493 511.797 42.8024 513.966 40.4113 514.915C36.8236 516.339 32.756 514.634 31.255 511.077C29.7539 507.52 31.3697 503.415 34.8923 501.837Z"/><path fill="#181716" transform="scale(1.42857 1.40625)" d="M35.4353 450.657C38.4447 449.737 41.7166 450.505 44.0017 452.67C46.2867 454.834 47.2322 458.06 46.4771 461.116C45.7219 464.172 43.3828 466.586 40.3528 467.436C35.743 468.729 30.9506 466.073 29.6038 461.477C28.2569 456.882 30.8569 452.058 35.4353 450.657Z"/><path fill="#FEC84C" transform="scale(1.42857 1.40625)" d="M37.4199 451.949C41.2764 451.722 44.5962 454.644 44.8615 458.499C45.1268 462.354 42.2387 465.703 38.3875 466.007C34.4818 466.315 31.0753 463.376 30.8062 459.467C30.5371 455.557 33.5089 452.179 37.4199 451.949Z"/><path fill="#181716" transform="scale(1.42857 1.40625)" d="M36.3262 598.309C40.9997 597.424 45.5186 600.452 46.4796 605.112C47.4405 609.771 44.4882 614.34 39.8464 615.378C36.775 616.065 33.5721 615.041 31.4674 612.701C29.3627 610.36 28.6834 607.066 29.6903 604.084C30.6972 601.101 33.2338 598.894 36.3262 598.309Z"/><path fill="#FEC84C" transform="scale(1.42857 1.40625)" d="M35.3961 600.278C39.046 598.917 43.1082 600.769 44.4757 604.417C45.8432 608.065 43.9997 612.132 40.3552 613.507C36.7005 614.886 32.6209 613.035 31.2496 609.377C29.8783 605.719 31.7361 601.642 35.3961 600.278Z"/><path fill="#181716" transform="scale(1.42857 1.40625)" d="M9.10643 475.591C13.6256 474.129 18.4816 476.562 20.0169 481.058C21.5522 485.554 19.1993 490.45 14.7306 492.06C11.7738 493.124 8.47284 492.512 6.09494 490.457C3.71704 488.402 2.6318 485.224 3.25587 482.143C3.87994 479.062 6.11633 476.558 9.10643 475.591Z"/><path fill="#FEC84C" transform="scale(1.42857 1.40625)" d="M10.379 476.88C14.1295 476.185 17.7566 478.586 18.5823 482.311C19.4079 486.036 17.1354 489.746 13.4426 490.701C10.9362 491.35 8.2758 490.578 6.50462 488.69C4.73344 486.801 4.13387 484.096 4.94104 481.636C5.7482 479.175 7.83342 477.352 10.379 476.88Z"/><path fill="#181716" transform="scale(1.42857 1.40625)" d="M9.02134 623.269C13.5262 621.782 18.3915 624.179 19.9582 628.658C21.5249 633.137 19.2154 638.045 14.7666 639.692C11.8171 640.784 8.50817 640.198 6.11222 638.161C3.71627 636.123 2.60645 632.95 3.20956 629.863C3.81266 626.776 6.03477 624.254 9.02134 623.269Z"/><path fill="#FEC84C" transform="scale(1.42857 1.40625)" d="M9.58022 624.601C13.373 623.451 17.3767 625.609 18.5034 629.409C19.63 633.21 17.4493 637.201 13.643 638.306C9.86873 639.401 5.91884 637.242 4.80165 633.473C3.68446 629.704 5.81929 625.741 9.58022 624.601Z"/><path fill="#181716" transform="scale(1.42857 1.40625)" d="M9.32326 672.484C13.8122 671.181 18.5269 673.668 19.987 678.109C21.447 682.551 19.1279 687.351 14.7415 688.966C11.7637 690.063 8.42491 689.447 6.03468 687.359C3.64445 685.271 2.58393 682.045 3.26909 678.946C3.95426 675.847 6.27585 673.369 9.32326 672.484Z"/><path fill="#FEC84C" transform="scale(1.42857 1.40625)" d="M11.2853 673.855C15.0133 673.648 18.2504 676.397 18.651 680.11C19.0516 683.823 16.4755 687.2 12.7893 687.794C10.2277 688.206 7.64763 687.171 6.08061 685.103C4.51358 683.035 4.21532 680.27 5.30507 677.915C6.39483 675.56 8.69477 673.998 11.2853 673.855Z"/><path fill="#181716" transform="scale(1.42857 1.40625)" d="M35.7613 697.444C40.3746 696.19 45.1322 698.908 46.3955 703.52C47.6588 708.132 44.9508 712.896 40.3427 714.169C35.7213 715.446 30.9415 712.728 29.6745 708.102C28.4076 703.477 31.1347 698.702 35.7613 697.444Z"/><path fill="#FEC84C" transform="scale(1.42857 1.40625)" d="M36.7902 698.806C40.5676 698.134 44.1949 700.588 44.9784 704.344C45.7619 708.101 43.4177 711.8 39.6867 712.695C37.1729 713.298 34.5302 712.486 32.7888 710.575C31.0474 708.664 30.4829 705.957 31.3152 703.509C32.1476 701.061 34.2451 699.259 36.7902 698.806Z"/><path fill="#181716" transform="scale(1.42857 1.40625)" d="M8.6218 524.811C11.5246 523.664 14.8197 524.168 17.247 526.131C19.6742 528.093 20.8582 531.21 20.3461 534.289C19.834 537.369 17.7051 539.935 14.7735 541.005C10.3217 542.631 5.38997 540.376 3.70666 535.945C2.02335 531.513 4.21367 526.552 8.6218 524.811Z"/><path fill="#FEC84C" transform="scale(1.42857 1.40625)" d="M9.82333 526.077C13.5783 525.06 17.4456 527.285 18.4535 531.044C19.4614 534.802 17.2267 538.665 13.4668 539.664C9.72008 540.659 5.87492 538.433 4.8706 534.688C3.86627 530.943 6.08168 527.091 9.82333 526.077Z"/><path fill="#181716" transform="scale(1.42857 1.40625)" d="M8.66492 574.084C13.1367 572.381 18.1417 574.632 19.8356 579.108C21.5295 583.584 19.269 588.586 14.7904 590.271C10.3245 591.952 5.34155 589.699 3.65246 585.235C1.96337 580.771 4.20588 575.783 8.66492 574.084Z"/><path fill="#FEC84C" transform="scale(1.42857 1.40625)" d="M10.298 575.31C12.7718 574.791 15.3338 575.644 17.0029 577.542C18.672 579.441 19.1897 582.092 18.3578 584.479C17.5259 586.867 15.4733 588.622 12.9858 589.072C9.21415 589.754 5.5941 587.279 4.85918 583.516C4.12426 579.754 6.54701 576.098 10.298 575.31Z"/><path fill="#F85824" transform="scale(1.42857 1.40625)" d="M1318.65 423.867C1322.38 422.638 1339.04 423.687 1344 423.945L1344 425.534L1344 440.591L1344 469.793L1344 491.678L1344 520.845L1344 543.799L1344 573.629L1344 594.791L1344 623.333L1344 647.428L1344 675.572L1344 698.726L1344 718.179L1331.41 718.121C1321.57 718.064 1313.65 718.156 1303.82 717.237C1297.81 714.344 1292.17 711.421 1287.79 706.113C1284.9 702.62 1281.82 697.366 1281.27 692.807C1279.26 676.22 1280.22 659.52 1280.35 642.876L1280.33 575.034L1280.2 497.001C1280.17 487.634 1280.04 478.262 1279.96 468.896C1279.85 456.608 1280.19 447.905 1287.58 437.611C1293.47 430.879 1297.2 429.447 1305.25 426.199C1309.54 425.636 1315.44 425.779 1318.65 423.867Z"/><path fill="#FD914D" transform="scale(1.42857 1.40625)" d="M1303.82 717.237C1304.11 711.036 1304.01 705.949 1308.94 701.326C1311.56 698.889 1315.06 697.614 1318.63 697.79C1321.96 697.952 1325.08 699.43 1327.31 701.896C1331.67 706.703 1331.75 712.086 1331.41 718.121C1321.57 718.064 1313.65 718.156 1303.82 717.237Z"/><path fill="#FD914D" transform="scale(1.42857 1.40625)" d="M1344 623.333L1344 647.428C1340.86 646.918 1338.61 646.411 1335.52 645.622C1324.74 633.261 1330.07 626.501 1344 623.333Z"/><path fill="#FD914D" transform="scale(1.42857 1.40625)" d="M1344 543.799C1334.45 542.197 1324.53 536.44 1332.83 524.532C1334.92 521.533 1340.4 520.839 1344 520.845L1344 543.799Z"/><path fill="#FD914D" transform="scale(1.42857 1.40625)" d="M1344 594.791C1342.97 594.755 1341.94 594.693 1340.91 594.606C1337.36 594.292 1334.77 593.368 1332.49 590.534C1330.43 587.977 1329.52 584.684 1329.97 581.433C1331.06 573.445 1337.29 572.414 1344 573.629L1344 594.791Z"/><path fill="#FD914D" transform="scale(1.42857 1.40625)" d="M1344 698.726C1333.11 697.888 1325.77 688.111 1333.62 678.148C1335.83 675.334 1340.56 675.472 1344 675.572L1344 698.726Z"/><path fill="#FD914D" transform="scale(1.42857 1.40625)" d="M1344 491.678C1325.59 490.963 1323.72 472.084 1344 469.793L1344 491.678Z"/><path fill="#FD914D" transform="scale(1.42857 1.40625)" d="M1344 425.534L1344 440.591C1335.07 439.91 1327.66 436.523 1329.96 425.97C1331.98 425.059 1341.23 425.497 1344 425.534Z"/><path fill="#FD914D" transform="scale(1.42857 1.40625)" d="M1287.58 437.611C1293.47 430.879 1297.2 429.447 1305.25 426.199C1304.77 431.761 1304.61 435.345 1300.09 439.226C1295.87 442.836 1290.97 440.886 1287.58 437.611Z"/><path fill="#FD914D" transform="scale(1.42857 1.40625)" d="M1316.53 543.894C1324.24 543.249 1331.04 548.905 1331.82 556.605C1332.6 564.305 1327.06 571.207 1319.38 572.117C1314.29 572.719 1309.27 570.529 1306.25 566.386C1303.23 562.244 1302.68 556.795 1304.81 552.133C1306.94 547.47 1311.42 544.321 1316.53 543.894Z"/><path fill="#FD914D" transform="scale(1.42857 1.40625)" d="M1314.07 595.691C1321.6 593.631 1329.36 598.091 1331.38 605.633C1333.4 613.175 1328.9 620.918 1321.35 622.894C1313.85 624.854 1306.19 620.394 1304.18 612.912C1302.18 605.43 1306.6 597.736 1314.07 595.691Z"/><path fill="#FD914D" transform="scale(1.42857 1.40625)" d="M1315.33 646.878C1322.99 645.556 1330.27 650.711 1331.58 658.381C1332.88 666.051 1327.7 673.321 1320.03 674.602C1312.39 675.879 1305.16 670.728 1303.86 663.087C1302.56 655.446 1307.69 648.196 1315.33 646.878Z"/><path fill="#FD914D" transform="scale(1.42857 1.40625)" d="M1314.75 441.413C1322.39 439.867 1329.82 444.848 1331.29 452.501C1332.76 460.153 1327.71 467.537 1320.05 468.935C1315.97 469.678 1311.77 468.579 1308.59 465.932C1305.4 463.286 1303.54 459.364 1303.52 455.22C1303.49 448.526 1308.19 442.742 1314.75 441.413Z"/><path fill="#FD914D" transform="scale(1.42857 1.40625)" d="M1315.34 492.707C1322.93 491.464 1330.1 496.583 1331.39 504.167C1332.68 511.751 1327.61 518.954 1320.03 520.291C1312.39 521.64 1305.11 516.511 1303.81 508.861C1302.51 501.21 1307.68 493.962 1315.34 492.707Z"/><path fill="#FD914D" transform="scale(1.42857 1.40625)" d="M1290.56 469.68C1294.66 468.478 1299.08 469.604 1302.11 472.618C1305.14 475.632 1306.28 480.055 1305.1 484.16C1303.92 488.265 1300.59 491.399 1296.43 492.339C1290.26 493.73 1284.1 489.974 1282.52 483.853C1280.93 477.733 1284.49 471.459 1290.56 469.68Z"/><path fill="#FD914D" transform="scale(1.42857 1.40625)" d="M1292.14 675.113C1298.45 674.25 1304.29 678.599 1305.27 684.894C1306.26 691.189 1302.03 697.115 1295.75 698.223C1291.58 698.959 1287.34 697.385 1284.66 694.107C1281.99 690.83 1281.29 686.36 1282.84 682.421C1284.39 678.481 1287.94 675.686 1292.14 675.113Z"/><path fill="#FD914D" transform="scale(1.42857 1.40625)" d="M1291.32 520.861C1297.64 519.62 1303.76 523.737 1304.99 530.053C1306.22 536.369 1302.1 542.487 1295.78 543.71C1289.48 544.932 1283.38 540.816 1282.15 534.512C1280.92 528.208 1285.02 522.099 1291.32 520.861Z"/><path fill="#FD914D" transform="scale(1.42857 1.40625)" d="M1290.83 623.878C1296.98 622.235 1303.31 625.87 1304.99 632.014C1306.67 638.158 1303.07 644.505 1296.94 646.221C1290.75 647.952 1284.34 644.317 1282.65 638.121C1280.96 631.926 1284.63 625.535 1290.83 623.878Z"/><path fill="#FD914D" transform="scale(1.42857 1.40625)" d="M1289.91 572.77C1293.84 571.428 1298.18 572.302 1301.28 575.059C1304.38 577.816 1305.76 582.029 1304.89 586.086C1304.02 590.144 1301.03 593.418 1297.07 594.658C1291.06 596.539 1284.65 593.238 1282.69 587.249C1280.73 581.261 1283.95 574.809 1289.91 572.77Z"/><path fill="#5F2011" transform="scale(1.42857 1.40625)" d="M1344 719.427C1313.3 719.727 1279 724.337 1278.9 681.254C1278.78 632.851 1278.96 584.401 1278.82 535.996L1278.66 484.851C1278.57 451.913 1275.68 424.59 1318.65 423.867C1315.44 425.779 1309.54 425.636 1305.25 426.199C1297.2 429.447 1293.47 430.879 1287.58 437.611C1280.19 447.905 1279.85 456.608 1279.96 468.896C1280.04 478.262 1280.17 487.634 1280.2 497.001L1280.33 575.034L1280.35 642.876C1280.22 659.52 1279.26 676.22 1281.27 692.807C1281.82 697.366 1284.9 702.62 1287.79 706.113C1292.17 711.421 1297.81 714.344 1303.82 717.237C1313.65 718.156 1321.57 718.064 1331.41 718.121L1344 718.179L1344 719.427Z"/><path fill="#181716" transform="scale(1.42857 1.40625)" d="M25.705 288.47C40.356 272.991 59.0909 274.389 77.473 281.445C80.6731 282.673 86.2131 284.673 86.7596 288.418L86.0816 288.833C83.0855 287.26 80.6641 285.118 77.6768 283.569C60.1369 274.471 41.9806 275.306 27.2382 288.688C30.1109 291.305 31.3885 292.657 31.8303 296.747L30.9317 297.313C19.914 294.176 26.3723 280.241 0 289.94L0 288.308C10.7101 284.884 14.6087 285.018 25.705 288.47Z"/><path fill="#181716" transform="scale(1.42857 1.40625)" d="M1049.91 253.126C1050.25 253.195 1051.7 253.454 1051.92 253.569C1066.72 256.572 1082.5 260.904 1093.93 271.266L1094.42 271.798C1106.05 281.757 1112.81 292.969 1120.39 306.158L1120.38 307.422C1129.5 320.458 1135.79 345.679 1136.9 361.512L1136.59 362.573C1137.3 377.78 1134.78 389.809 1127.26 403.262L1126.36 404.408C1119.93 411.8 1116.35 416.258 1107.34 420.929C1105.39 421.942 1100.17 423.789 1099.11 424.416C1102.27 441.78 1100.83 458.171 1090.43 472.853C1057.64 519.135 996.192 483.833 959.647 463.172C968.994 480.837 979.171 498.948 986.748 517.452C993.665 534.346 999.431 551.974 990.356 569.207L999.297 585.265L997.995 585.667L1003.07 595.074C997.636 602.161 992.026 608.489 986.154 615.202C979.272 610.583 974.704 609.649 966.418 608.838L968.244 605.398L967.225 604.521C971.479 596.385 971.073 591.459 970.165 582.435C943.51 583.786 937.4 571.989 924.191 551.98C916.2 570.892 910.877 584.13 892.234 594.728C889.615 604.269 886.245 616.012 882.858 625.301L881.926 624.376C875.438 627.263 868.902 630.041 862.321 632.709C856.356 623.391 852.123 621.814 842.193 618.21L841.259 617.604C842.457 616.158 845.314 613.928 846.785 612.708C855.818 605.215 857.981 603.532 861.612 592.532C848.968 582.508 844.629 569.903 847.023 554.067C851.223 526.284 860.103 499.107 868.43 472.323C867.356 470.781 866.319 469.213 865.32 467.62C858.753 456.825 856.723 443.868 859.675 431.58C863.22 416.983 872.161 408.015 884.441 400.616C881.022 389.282 876.98 378.592 873.117 367.423C866.6 348.273 859.916 329.181 853.065 310.148L900.954 310.166C908.143 310.172 920.584 309.835 927.407 310.523C932.809 300.76 947.165 286.157 956.232 279.74C965.109 273.457 990.833 256.939 1001.49 256.93L1002.49 256.001L1003.01 257.518C1003.84 261.194 1003.69 260.232 1006.1 262.715C1022.6 272.84 1033.83 267.502 1046.13 254.931L1046.45 253.345L1049.91 253.126Z"/><path fill="#B6BCC1" transform="scale(1.42857 1.40625)" d="M950.069 454.386C943.865 482.495 937.128 512.17 927.29 539.276C920.893 556.899 909.874 584.684 891.763 593.034C885.888 595.742 875.246 596.882 869.383 594.414C861.916 591.272 854.589 585.198 851.39 577.553C849.389 572.774 847.859 566.015 848.418 560.802C851.818 529.146 862.253 493.218 873.166 463.411C881.848 439.695 895.572 414.687 919.226 403.812C922.597 402.417 927.53 401.082 931.171 401.103C966.286 401.302 1001.42 400.898 1036.53 401.196C1039.87 401.224 1043.02 401.879 1046.11 403.122C1049.2 404.259 1053.67 406.051 1056.74 406.864L1057.98 406.289C1062.13 414.858 1064.72 418.787 1073.74 422.583C1081.67 425.924 1091.86 423.697 1097.63 424.801C1100.62 442.073 1099.09 457.557 1088.98 472.147C1071.17 497.852 1040.09 497.294 1013.66 487.527C991.057 479.176 969.822 468.299 950.069 454.386Z"/><path transform="scale(1.42857 1.40625)" d="M1049.91 253.126C1050.25 253.195 1051.7 253.454 1051.92 253.569C1066.72 256.572 1082.5 260.904 1093.93 271.266L1094.42 271.798C1106.05 281.757 1112.81 292.969 1120.39 306.158L1120.38 307.422C1129.5 320.458 1135.79 345.679 1136.9 361.512L1136.59 362.573C1137.3 377.78 1134.78 389.809 1127.26 403.262L1126.36 404.408C1119.93 411.8 1116.35 416.258 1107.34 420.929C1105.39 421.942 1100.17 423.789 1099.11 424.416L1097.63 424.801C1091.86 423.697 1081.67 425.924 1073.74 422.583C1064.72 418.787 1062.13 414.858 1057.98 406.289C1057.77 402.345 1057.91 399.069 1058.06 395.151L1056.53 395.239C1051.38 392.022 1043.94 388.995 1038.25 386.482C1023.89 392.879 1017.45 390.147 1003.27 385.973C1000.99 379.676 999.609 374.486 996.804 368.163L995.899 368.918C988.832 351.059 982.711 329.308 975.305 312.401C961.488 312.298 947.672 312.074 933.858 311.73C931.36 311.606 929.603 311.716 927.407 310.523C932.809 300.76 947.165 286.157 956.232 279.74C965.109 273.457 990.833 256.939 1001.49 256.93L1002.49 256.001L1003.01 257.518C1003.84 261.194 1003.69 260.232 1006.1 262.715C1022.6 272.84 1033.83 267.502 1046.13 254.931L1046.45 253.345L1049.91 253.126Z"/><path fill="#F6F1EB" transform="scale(1.42857 1.40625)" d="M996.804 368.163C1005 362.49 1024.33 365.927 1033.1 369.294L1033.89 368.997C1037.99 369.797 1065.43 377.16 1067.11 376.859L1068.96 375.304L1069.71 376.228C1063.66 382.916 1060.89 386.687 1058.06 395.151L1056.53 395.239C1051.38 392.022 1043.94 388.995 1038.25 386.482C1023.89 392.879 1017.45 390.147 1003.27 385.973C1000.99 379.676 999.609 374.486 996.804 368.163Z"/><path transform="scale(1.42857 1.40625)" d="M1127.26 403.262C1121.95 399.325 1117.83 394.464 1116.41 387.853C1115.24 382.553 1116.29 377.005 1119.31 372.498C1123.55 366.256 1129.52 363.903 1136.59 362.573C1137.3 377.78 1134.78 389.809 1127.26 403.262Z"/><path transform="scale(1.42857 1.40625)" d="M1094.42 271.798C1106.05 281.757 1112.81 292.969 1120.39 306.158C1119.37 306.477 1118.34 306.769 1117.3 307.035C1111.84 308.419 1106.06 307.493 1101.31 304.476C1090.07 297.483 1087.1 282.802 1094.42 271.798Z"/><path transform="scale(1.42857 1.40625)" d="M1046.45 253.345L1049.91 253.126C1049.15 256.155 1048.61 258.253 1047.23 261.167C1039.77 277.046 1016.01 280.253 1006.57 264.592C1006.14 263.894 1006.14 263.52 1006.1 262.715C1022.6 272.84 1033.83 267.502 1046.13 254.931L1046.45 253.345Z"/><path fill="#B6BCC1" transform="scale(1.42857 1.40625)" d="M1049.91 253.126C1050.25 253.195 1051.7 253.454 1051.92 253.569C1050.32 254.768 1049.31 259.078 1048.64 261.16C1045.52 270.859 1034.85 276.741 1025.06 276.381C1018.26 276.126 1011.86 273.125 1007.32 268.064C1004.48 264.895 1002.48 261.068 1001.49 256.93L1002.49 256.001L1003.01 257.518C1003.84 261.194 1003.69 260.232 1006.1 262.715C1006.14 263.52 1006.14 263.894 1006.57 264.592C1016.01 280.253 1039.77 277.046 1047.23 261.167C1048.61 258.253 1049.15 256.155 1049.91 253.126Z"/><path fill="#B6BCC1" transform="scale(1.42857 1.40625)" d="M1126.36 404.408C1125.6 403.881 1124.86 403.309 1124.16 402.694C1107.38 388.21 1113.18 362.785 1136.9 361.512L1136.59 362.573C1129.52 363.903 1123.55 366.256 1119.31 372.498C1116.29 377.005 1115.24 382.553 1116.41 387.853C1117.83 394.464 1121.95 399.325 1127.26 403.262L1126.36 404.408Z"/><path fill="#B6BCC1" transform="scale(1.42857 1.40625)" d="M1093.93 271.266L1094.42 271.798C1087.1 282.802 1090.07 297.483 1101.31 304.476C1106.06 307.493 1111.84 308.419 1117.3 307.035C1118.34 306.769 1119.37 306.477 1120.39 306.158L1120.38 307.422C1100.64 317.291 1078.64 288.347 1093.93 271.266Z"/><path fill="#B6BCC1" transform="scale(1.42857 1.40625)" d="M1068.96 375.304C1081.24 363.766 1091.56 354.053 1076.96 338.622C1075.24 336.823 1073.49 335.054 1071.7 333.319L1071.91 332.77C1075.59 334.262 1077.42 337.089 1079.93 339.897C1093.15 354.693 1080.46 366.035 1069.71 376.228L1068.96 375.304Z"/><path fill="#B6BCC1" transform="scale(1.42857 1.40625)" d="M1033.1 369.294C1034.18 363.47 1034.82 350.058 1035.54 347.238C1037.11 352.455 1035.88 364.001 1033.89 368.997L1033.1 369.294Z"/><path fill="#B6BCC1" transform="scale(1.42857 1.40625)" d="M1067.34 309.842C1074.79 309.433 1082.21 313 1083.74 320.885C1084.03 322.372 1084.18 325.395 1083.36 326.641C1082.37 321.688 1082.04 314.897 1076.4 312.812C1067.36 309.467 1060.95 312.56 1056.85 320.996C1055.28 333.872 1060.64 333.606 1069.9 337.19L1069.31 337.709C1062.92 338.376 1058.45 336.232 1056.29 329.885C1054.9 325.845 1055.25 321.412 1057.24 317.634C1059.62 313.022 1062.65 311.4 1067.34 309.842Z"/><path fill="#B6BCC1" transform="scale(1.42857 1.40625)" d="M975.55 308.854C984.271 307.717 991.958 310.435 997.055 317.878C1000.38 322.736 1001.61 328.725 1000.48 334.501C999.274 340.646 996.051 344.48 991.029 347.875L990.865 347.736C990.732 345.993 996.314 341.268 998.24 336.468C1000.18 331.624 1000.05 326.197 997.888 321.449C992.696 309.946 984.214 312.318 975.55 308.854Z"/><path fill="#B6BCC1" transform="scale(1.42857 1.40625)" d="M951.966 284.755C961.638 285.497 965.264 302.147 964.362 310.136C962.125 308.484 964.084 300.26 960.595 294.675C957.164 289.183 956.85 289.005 951.966 284.755Z"/><path fill="#98C2AC" transform="scale(1.42857 1.40625)" d="M933.858 311.73C947.672 312.074 961.488 312.298 975.305 312.401C982.711 329.308 988.832 351.059 995.899 368.918L996.804 368.163C999.609 374.486 1000.99 379.676 1003.27 385.973L1002.27 387.163L1004.77 395.832C996.326 395.856 986.604 395.651 978.263 395.946C948.573 395.136 915.002 395.869 885.018 395.909C881.696 387.83 878.372 376.686 875.247 368.129C868.451 349.514 861.772 330.737 855.767 311.859C881.797 311.965 907.828 311.922 933.858 311.73Z"/><path fill="#181716" transform="scale(1.42857 1.40625)" d="M995.899 368.918L996.804 368.163C999.609 374.486 1000.99 379.676 1003.27 385.973L1002.27 387.163C1001.46 383.518 997.379 374.837 995.899 368.918Z"/><path transform="scale(1.42857 1.40625)" d="M926.068 348.896C929.875 347.267 934.28 349.052 935.88 352.872C937.48 356.693 935.663 361.085 931.832 362.657C928.041 364.213 923.705 362.418 922.122 358.638C920.538 354.858 922.3 350.508 926.068 348.896Z"/><path fill="#98C2AC" transform="scale(1.42857 1.40625)" d="M927.851 350.215C930.911 349.567 933.918 351.521 934.569 354.582C935.221 357.642 933.27 360.652 930.211 361.307C927.148 361.963 924.133 360.008 923.481 356.943C922.828 353.878 924.786 350.865 927.851 350.215Z"/><path fill="#F6F1EB" transform="scale(1.42857 1.40625)" d="M863.035 593.458C874.219 598.054 878.175 598.352 890.238 595.808C888.131 602.96 883.297 617.685 881.926 624.376C875.438 627.263 868.902 630.041 862.321 632.709C856.356 623.391 852.123 621.814 842.193 618.21C853.593 609.725 858.079 607.286 863.035 593.458Z"/><path fill="#F6F1EB" transform="scale(1.42857 1.40625)" d="M971.612 582.178C979.851 578.979 982.757 576.667 989.034 570.944C992.149 575.46 995.183 580.882 997.995 585.667L1003.07 595.074C997.636 602.161 992.026 608.489 986.154 615.202C979.272 610.583 974.704 609.649 966.418 608.838L968.244 605.398C973.574 596.563 972.986 591.86 971.612 582.178Z"/><path transform="scale(1.42857 1.40625)" d="M1003.27 385.973C1017.45 390.147 1023.89 392.879 1038.25 386.482C1043.94 388.995 1051.38 392.022 1056.53 395.239L1058.06 395.151C1057.91 399.069 1057.77 402.345 1057.98 406.289L1056.74 406.864C1053.67 406.051 1049.2 404.259 1046.11 403.122C1050.06 402.469 1052.02 399.506 1050.24 395.699C1047.92 394.264 1048.91 394.474 1046.47 394.602C1042.99 396.936 1020.37 395.563 1013.89 395.925L1013.59 396.705C1011.64 397.364 980.974 396.495 978.263 395.946C986.604 395.651 996.326 395.856 1004.77 395.832L1002.27 387.163L1003.27 385.973Z"/><path fill="#989DA4" transform="scale(1.42857 1.40625)" d="M1006.82 394.463C1016.9 394.493 1035.74 393.783 1044.85 394.777L1046.47 394.602C1042.99 396.936 1020.37 395.563 1013.89 395.925C1010.95 395.776 1008.86 396.103 1006.82 394.463Z"/><path fill="#181716" transform="scale(1.42857 1.40625)" d="M1006.82 394.463C1011.7 392.587 1025.99 395.44 1029.99 392.592C1034.27 393.47 1040.67 393.221 1045.23 393.205L1044.85 394.777C1035.74 393.783 1016.9 394.493 1006.82 394.463Z"/><path fill="#B6BCC1" transform="scale(1.42857 1.40625)" d="M1029.99 392.592C1034.03 391.79 1041.23 390.848 1045.33 391.121L1046.4 391.953L1046.06 392.87L1045.23 393.205C1040.67 393.221 1034.27 393.47 1029.99 392.592Z"/><path fill="#989DA4" transform="scale(1.42857 1.40625)" d="M1058.06 395.151C1057.91 399.069 1057.77 402.345 1057.98 406.289L1056.74 406.864C1056.46 403.364 1056.55 398.828 1056.53 395.239L1058.06 395.151Z"/><path fill="#B6BCC1" transform="scale(1.42857 1.40625)" d="M951.426 457.661C952.006 457.975 952.574 458.302 953.118 458.675C964.632 466.563 991.289 530.667 993.914 545.457C995.291 553.213 992.949 562.169 988.409 568.535C983.366 575.608 975.883 579.369 967.47 580.747C943.19 581.721 936.776 567.915 924.799 550.104C936.912 516.877 943.208 492.027 951.426 457.661Z"/><path fill="#B6BCC1" transform="scale(1.42857 1.40625)" d="M892.391 401.394L920.663 401.128C894.401 415.6 886.21 427.812 874.79 455.393C872.839 460.403 870.919 465.425 869.03 470.458C852.201 447.671 861.375 403.575 892.391 401.394Z"/><path fill="#98C2AC" transform="scale(1.42857 1.40625)" d="M885.17 398.097C892.334 397.419 902.8 397.755 910.209 397.761L952.411 397.781L1006.04 397.744C1013.39 397.716 1042.91 396.854 1047.66 399.179L940.706 399.447C932.569 399.475 888.964 400.706 885.17 398.097Z"/><path transform="scale(1.42857 1.40625)" d="M1022.39 163.447C1021.71 149.34 1026.97 137.913 1042.69 137.192C1048.1 136.915 1053.39 138.811 1057.4 142.46C1065.54 149.923 1067.04 164.268 1059.06 172.406C1053.04 178.551 1046.06 178.691 1038.11 178.817C1046.62 200.481 1044.95 213.964 1028.39 231.088C1030.88 236.171 1036.93 250.214 1042.3 252.978C1042.91 253.293 1045.58 253.338 1046.45 253.345L1046.13 254.931C1033.83 267.502 1022.6 272.84 1006.1 262.715C1003.69 260.232 1003.84 261.194 1003.01 257.518L1002.49 256.001C1002.04 252.709 1002.16 247.243 1002.14 243.769C991.342 243.569 986.464 242.107 977.546 236.587C954.208 218.318 954.563 175.739 983.37 162.977C998.33 156.349 1007.94 158.528 1022.39 163.447Z"/><path fill="#F6F1EB" transform="scale(1.42857 1.40625)" d="M973.328 188.812C979.844 203.597 992.015 206.59 1006.48 208.518C1014.88 199.71 1024.75 206.495 1015.87 217.782C1020.38 222.664 1023.27 226.106 1026.83 231.677L1028.39 231.088C1030.88 236.171 1036.93 250.214 1042.3 252.978C1042.91 253.293 1045.58 253.338 1046.45 253.345L1046.13 254.931C1033.83 267.502 1022.6 272.84 1006.1 262.715C1003.69 260.232 1003.84 261.194 1003.01 257.518L1002.49 256.001C1002.04 252.709 1002.16 247.243 1002.14 243.769C991.342 243.569 986.464 242.107 977.546 236.587L978.463 235.663C968.637 227.6 965.923 218.052 963.567 206.269C969.628 200.174 970.979 196.764 973.328 188.812Z"/><path fill="#181716" transform="scale(1.42857 1.40625)" d="M978.463 235.663C988.009 241.457 992.736 241.41 1003.67 242.232C1004.02 247.209 1004.56 252.727 1003.01 257.518L1002.49 256.001C1002.04 252.709 1002.16 247.243 1002.14 243.769C991.342 243.569 986.464 242.107 977.546 236.587L978.463 235.663Z"/><path fill="#181716" transform="scale(1.42857 1.40625)" d="M1026.83 231.677L1028.39 231.088C1030.88 236.171 1036.93 250.214 1042.3 252.978C1042.91 253.293 1045.58 253.338 1046.45 253.345L1046.13 254.931L1039.52 254.367C1034.82 246.944 1030.89 239.436 1026.83 231.677Z"/><path transform="scale(1.42857 1.40625)" d="M997.995 585.667L999.297 585.265C1001.05 587.839 1003.05 590.949 1005 593.317C1009.67 593.332 1011.55 592.854 1015.03 596.33C1018.46 599.769 1020.35 603.244 1020.54 608.174C1020.62 610.207 1019.99 611.065 1018.25 612.218L1019.13 612.818L1020.89 612.114C1023.32 613.991 1023.5 616.972 1021.04 618.866C997.59 636.894 972.486 652.949 948.399 670.135C943.098 673.918 938.673 673.337 935.863 667.023L935.314 665.543C926.413 653.493 938.873 629.811 948.882 621.212C955.076 615.891 962.024 610.806 967.225 604.521L968.244 605.398L966.418 608.838C974.704 609.649 979.272 610.583 986.154 615.202C992.026 608.489 997.636 602.161 1003.07 595.074L997.995 585.667Z"/><path transform="scale(1.42857 1.40625)" d="M1019.13 612.818L1020.89 612.114C1023.32 613.991 1023.5 616.972 1021.04 618.866C997.59 636.894 972.486 652.949 948.399 670.135C943.098 673.918 938.673 673.337 935.863 667.023L935.314 665.543C960.459 650.052 994.408 629.082 1018.25 612.218L1019.13 612.818Z"/><path fill="#989DA4" transform="scale(1.42857 1.40625)" d="M1018.25 612.218L1019.13 612.818C1009.63 620.859 937.562 664.522 935.863 667.023L935.314 665.543C960.459 650.052 994.408 629.082 1018.25 612.218Z"/><path transform="scale(1.42857 1.40625)" d="M858.65 660.292C847.423 661.493 800.225 662.905 793.056 656.982C791.028 655.306 789.897 652.725 789.624 650.148C789.141 645.578 791.094 641.119 793.893 637.612C805.11 623.556 824.429 619.436 841.259 617.604L842.193 618.21C852.123 621.814 856.356 623.391 862.321 632.709C868.902 630.041 875.438 627.263 881.926 624.376L882.858 625.301C888.532 635.332 887.747 639.73 887.089 651.023L886.205 653.024C886.391 655.043 886.663 657.381 886.777 659.375C879.61 660.043 863.83 658.847 858.65 660.292Z"/><path fill="#989DA4" transform="scale(1.42857 1.40625)" d="M886.205 653.024C879.205 652.969 794.213 652.758 793.785 652.5C797.514 651.342 805.964 651.73 810.375 651.508C835.359 650.25 862.303 652.135 887.089 651.023L886.205 653.024Z"/><path fill="#181716" transform="scale(1.42857 1.40625)" d="M845.752 203.139C854.607 202.559 873.812 202.634 881.191 205.864C886.465 208.173 886.72 229.86 882.325 234.14C878.851 237.522 878.363 237.161 873.796 237.933C873.862 243.339 873.659 248.549 873.465 253.95L866.69 246.968L857.56 237.026C853.76 237 849.472 237.124 845.597 237.268C830.052 237.846 821.407 240.243 821.18 220.87C820.936 199.987 828.288 203.307 845.752 203.139Z"/><path fill="#F6F1EB" transform="scale(1.42857 1.40625)" d="M835.853 205.087C840.601 204.901 846.048 204.606 850.698 204.743C859.108 204.999 873.141 203.777 880.599 207.314C884.733 209.274 884.274 230.787 881.015 234.01C879.229 235.776 874.658 235.952 872.327 236.236C872.235 238.882 872.419 248.202 871.429 249.83C867 245.24 862.761 240.471 858.723 235.533C850.295 235.423 834.138 238.206 827.468 234.233C821.51 230.683 820.632 212.158 825.218 207.07C827.359 204.694 832.701 205.212 835.853 205.087Z"/><path fill="#181716" transform="scale(1.42857 1.40625)" d="M1132.14 119.46C1143.39 119.279 1163.79 117.829 1174.06 121.063C1178.88 122.58 1178.35 149.279 1174.54 154.452C1170.98 156.895 1165.41 156.319 1161.07 156.264C1160.18 156.214 1157.03 156.096 1156.36 156.197C1151.08 156.993 1144.07 166.787 1140.54 170.928L1140.52 156.436C1138.54 156.396 1132.55 156.497 1131.39 155.089C1125.76 148.249 1126.31 125.877 1132.14 119.46Z"/><path fill="#F6F1EB" transform="scale(1.42857 1.40625)" d="M1146.73 120.637C1150.48 119.601 1156.28 119.51 1159.98 120.642C1163.75 120.757 1168.84 120.655 1172.32 121.764C1177.02 125.522 1176.84 147.944 1173.77 152.896C1169.57 155.808 1158.01 154.863 1152.57 154.807L1141.94 167.173L1141.88 154.854C1138.67 154.746 1135.23 155.278 1132.48 153.922C1127.88 149.495 1128.61 127.177 1132.2 121.641C1134.26 120.081 1143.62 120.629 1146.73 120.637Z"/><path fill="#646463" transform="scale(1.42857 1.40625)" d="M1146.73 120.637C1150.48 119.601 1156.28 119.51 1159.98 120.642C1155.61 120.884 1151.11 120.719 1146.73 120.637Z"/><path fill="#181716" transform="scale(1.42857 1.40625)" d="M1107.53 450.619C1116.26 449.971 1129.04 450.33 1138.1 450.326L1193.06 450.328L1193 617.604C1184.44 621.967 1174.15 628.234 1165.65 633.052L1117.04 660.371L1036.9 660.379C1022.14 660.373 1002.25 660.902 987.967 659.474C999.46 657.516 1021.89 658.421 1034.58 658.445L1115.6 658.482C1115.58 644.347 1114.76 616.239 1116.78 603.513C1118.48 618.453 1117.67 642.35 1117.55 657.977C1132.08 650.27 1146.9 641.642 1161.27 633.543C1171.36 628.068 1181.35 622.391 1191.22 616.516L1191.15 453.064C1165.41 470.467 1139.71 488.54 1114.17 506.281C1080.34 505.934 1046.53 507.19 1012.7 506.668C1005.14 506.551 997.581 506.453 990.041 505.793L990.039 505.734C1004.98 504.348 1024.24 504.723 1039.45 504.709L1113.54 504.686C1138.64 487.786 1164.99 470.067 1189.39 452.252L1137.41 452.308C1131.97 452.323 1110.4 453.352 1107.53 450.619Z"/><path fill="#181716" transform="scale(1.42857 1.40625)" d="M1184.85 267.191C1204.92 266.858 1209.06 284.977 1189.04 295.265C1177.79 296.03 1173.8 293.217 1171.15 282.378C1173.36 273.098 1175.93 270.575 1184.85 267.191Z"/><path fill="#F6F1EB" transform="scale(1.42857 1.40625)" d="M1185.7 268.398C1204.62 270.932 1205.87 286.475 1188.78 293.643C1168.63 294.112 1167.37 275.755 1185.7 268.398Z"/><path fill="#F6F1EB" transform="scale(1.42857 1.40625)" d="M67.4407 335.088C70.2344 335.297 74.0018 335.386 76.5187 336.359C85.7118 340.315 86.4117 345.273 83.68 354.489C78.0143 360.651 70.0722 365.154 61.7714 361.104C58.7059 359.623 56.3557 356.983 55.2401 353.766C52.147 344.732 59.4195 337.678 67.4407 335.088Z"/><path fill="#181716" transform="scale(1.42857 1.40625)" d="M83.68 354.489C78.0143 360.651 70.0722 365.154 61.7714 361.104C58.7059 359.623 56.3557 356.983 55.2401 353.766C52.147 344.732 59.4195 337.678 67.4407 335.088L67.5767 336.467C59.749 340.238 52.8984 344.961 57.5288 355.741C63.0477 368.589 91.0392 356.36 82.4409 342.796C80.7301 339.857 78.9641 338.991 76.0988 337.346L76.5187 336.359C85.7118 340.315 86.4117 345.273 83.68 354.489Z"/><path fill="#646463" transform="scale(1.42857 1.40625)" d="M67.4407 335.088C70.2344 335.297 74.0018 335.386 76.5187 336.359L76.0988 337.346C73.6871 336.534 70.2032 336.57 67.5767 336.467L67.4407 335.088Z"/><path fill="#181716" transform="scale(1.42857 1.40625)" d="M836.671 450.347L837.053 450.964C833.44 453.935 813.981 463.484 809.005 466.078C783.683 479.274 756.59 491.256 731.469 504.662C742.371 504.579 755.678 504.166 766.3 505.524C758.368 507.031 736.45 506.392 727.326 506.302L727.364 658.467L748.243 658.48C756.327 658.368 772.039 657.51 779.301 659.755C765.639 661.032 740.314 660.308 725.754 660.313L725.86 505.416C748.916 493.246 773.065 482.36 796.233 470.294C809.373 463.451 823.188 456.445 836.671 450.347Z"/><path fill="#181716" transform="scale(1.42857 1.40625)" d="M1308.18 110.101L1309.13 110.383L1309.28 111.151C1302.6 114.667 1285.38 126.349 1285.44 135.697C1286.81 141.375 1298.23 140.098 1301.83 143.09C1312.57 151.99 1301.18 165.458 1290.26 157.114C1285.37 153.379 1284.77 147.177 1284.05 141.35C1271.19 147.77 1265.97 155.49 1262.7 169.206C1261.55 181.768 1263.58 190.357 1267.16 202.222L1266.6 202.558C1257.47 185.226 1257.62 161.123 1272.96 147.215C1276.59 143.925 1279.72 142.232 1283.96 139.878C1287.6 122.216 1292.82 118.266 1308.18 110.101Z"/><path fill="#F6F1EB" transform="scale(1.42857 1.40625)" d="M1285.44 141.018C1296.32 141.178 1307.78 143.304 1302.58 157.099C1289.62 160.731 1287.01 151.53 1285.44 141.018Z"/><path fill="#181716" transform="scale(1.42857 1.40625)" d="M4.51854 143.188C22.4187 147.297 28.9397 157.632 33.1744 174.655C43.0003 181.038 50.7966 188.355 53.5296 200.345L52.5982 200.806C48.5066 189.471 44.0937 182.655 33.1702 176.473C31.8004 180.814 28.9818 190.659 24.4408 192.566C15.8723 196.165 7.76068 190.312 11.5548 180.532C14.8814 171.957 26.8152 177.14 31.0478 171.042C31.6628 168.858 31.3679 167.272 30.1824 165.348C22.5469 152.958 16.7505 149.395 4.51854 143.188Z"/><path fill="#F6F1EB" transform="scale(1.42857 1.40625)" d="M21.0041 175.196C22.3571 175.149 23.7108 175.123 25.0647 175.116C27.7935 175.111 28.4341 175.116 30.3677 177.061C33.1664 182.731 26.6273 188.979 22.4994 192.092C8.1559 193.467 9.88366 181.049 21.0041 175.196Z"/><path fill="#181716" transform="scale(1.42857 1.40625)" d="M751.647 83.897C752.808 85.0911 753.007 88.61 753.179 90.3807C755.023 109.372 763.123 118.143 781.837 122.069C783.299 116.125 785.553 104.847 794.316 108.727C801.425 116.607 789.209 122.313 783.164 123.952C785.717 134.337 787.346 139.409 795.522 146.405C802.402 150.969 807.674 151.002 815.776 152.424L815.647 153.356C809.696 154.638 800.409 151.358 795.437 148.02C786.768 142.2 783.841 133.51 781.958 123.734C761.671 120.438 749.561 104.301 751.647 83.897Z"/><path fill="#F6F1EB" transform="scale(1.42857 1.40625)" d="M790.776 108.05C792.689 108.12 792.907 108.198 794.587 109.122C797.589 113.912 791.53 118.65 788.003 121.258C785.109 121.229 784.328 121.312 783.692 118.535C784.641 114.468 787.999 111.105 790.776 108.05Z"/><path fill="#181716" transform="scale(1.42857 1.40625)" d="M1261.22 381.225C1283.76 382.018 1290.59 379.469 1304.68 361.709L1305.25 361.967C1304.71 366.162 1297.76 372.773 1294.42 375.216C1284.91 382.16 1273.64 384.453 1262.08 382.652C1258.06 393.778 1252.61 405.443 1239.39 407.484C1237.45 407.783 1236.52 408.268 1234.39 408.087C1237.52 405.836 1242.81 405.024 1246.03 403.265C1251.76 399.776 1256.99 394.508 1259.15 388.148C1262.56 378.146 1247.67 380.967 1250.58 371.836C1253.96 369.724 1256.23 371.548 1258.26 374.508C1259.84 376.563 1260.39 378.764 1261.22 381.225Z"/><path fill="#F6F1EB" transform="scale(1.42857 1.40625)" d="M1252.27 376.312C1252.37 374.469 1252.36 374.201 1253.55 372.813C1256.09 372.755 1255.74 373.057 1258.26 374.508C1258.48 376.663 1258.76 377.81 1257.08 379.175C1254.94 378.929 1253.96 377.756 1252.27 376.312Z"/><path fill="#181716" transform="scale(1.42857 1.40625)" d="M747.751 264.174C752.086 263.092 756.481 265.718 757.583 270.05C758.686 274.382 756.081 278.79 751.756 279.913C747.401 281.044 742.958 278.417 741.848 274.056C740.738 269.695 743.386 265.263 747.751 264.174Z"/><path fill="#F6F1EB" transform="scale(1.42857 1.40625)" d="M748.462 265.531C752.042 264.82 755.524 267.137 756.249 270.715C756.974 274.293 754.67 277.784 751.096 278.523C747.502 279.266 743.989 276.947 743.26 273.35C742.531 269.752 744.863 266.247 748.462 265.531Z"/><path fill="#181716" transform="scale(1.42857 1.40625)" d="M1282.06 243.841C1284.86 242.949 1287.93 243.646 1290.07 245.664C1292.21 247.681 1293.09 250.7 1292.36 253.551C1291.64 256.401 1289.42 258.635 1286.58 259.384C1282.33 260.504 1277.97 258.033 1276.74 253.816C1275.52 249.599 1277.88 245.173 1282.06 243.841Z"/><path fill="#F6F1EB" transform="scale(1.42857 1.40625)" d="M1282.93 245.183C1286.45 244.322 1289.99 246.493 1290.82 250.017C1291.65 253.541 1289.45 257.065 1285.91 257.863C1282.43 258.651 1278.96 256.482 1278.14 253.003C1277.32 249.524 1279.46 246.034 1282.93 245.183Z"/><path fill="#181716" transform="scale(1.42857 1.40625)" d="M131.433 64.6564C135.691 63.3665 140.189 65.7628 141.496 70.0161C142.802 74.2695 140.424 78.7788 136.177 80.1022C131.906 81.433 127.367 79.0383 126.054 74.7611C124.74 70.484 127.152 65.9535 131.433 64.6564Z"/><path fill="#F6F1EB" transform="scale(1.42857 1.40625)" d="M131.871 66.0246C135.408 65.0058 139.1 67.0524 140.111 70.5922C141.121 74.132 139.067 77.8201 135.526 78.8234C131.996 79.8235 128.323 77.7766 127.315 74.2478C126.307 70.719 128.346 67.0403 131.871 66.0246Z"/><path fill="#181716" transform="scale(1.42857 1.40625)" d="M781.572 505.112C785.956 504.69 796.754 504.322 800.804 504.558C806.375 504.883 840.434 503.211 843.073 506.432C842.29 506.526 841.646 506.61 840.379 506.619C821.233 506.754 801.667 506.883 782.552 506.022C782.226 505.719 781.899 505.415 781.572 505.112Z"/><path fill="#181716" transform="scale(1.42857 1.40625)" d="M1116.45 533.414C1118.77 538.989 1118.15 571.963 1116.86 578.512C1114.45 574.36 1115.31 539.414 1116.45 533.414Z"/><path fill="#181716" transform="scale(1.42857 1.40625)" d="M886.777 659.375C896.265 658.421 916.6 657.614 925.874 659.302C918.174 660.858 905.487 660.467 897.195 660.452L858.65 660.292C863.83 658.847 879.61 660.043 886.777 659.375Z"/><path fill="#181716" transform="scale(1.42857 1.40625)" d="M53.5296 200.345C57.7393 211.572 53.2321 227.246 47.1336 237.118C51.3148 224.065 55.4801 214.615 52.5982 200.806L53.5296 200.345Z"/></svg>
